<?xml version="1.0" standalone="no"?>
<!DOCTYPE svg PUBLIC "-//W3C//DTD SVG 1.1//EN" "http://www.w3.org/Graphics/SVG/1.1/DTD/svg11.dtd" >
<!--
2013-7-31: Created.
-->
<svg xmlns="http://www.w3.org/2000/svg">
<metadata>
Created by FontForge 20120731 at Wed Jul 31 15:53:04 2013
 By jamin rubio
Created by jamin rubio with FontForge 2.0 (http://fontforge.sf.net)
</metadata>
<defs>
<font id="icons" horiz-adv-x="512" >
  <font-face 
    font-family="icons"
    font-weight="500"
    font-stretch="normal"
    units-per-em="512"
    panose-1="2 0 6 9 0 0 0 0 0 0"
    ascent="448"
    descent="-64"
    bbox="-60.2354 -153.183 549.511 583.529"
    underline-thickness="25.6"
    underline-position="-51.2"
    unicode-range="U+F100-F12E"
  />
    <missing-glyph />
    <glyph glyph-name="uniF100" unicode="&#xf100;" 
d="M65.2334 257.318l193.846 193.846l35.6572 -35.6572l-156.979 -156.979l151.827 -151.827l-36.8672 -36.8672zM65.2334 257.318z" />
    <glyph glyph-name="uniF101" unicode="&#xf101;" 
d="M42.3418 188.436l217.107 217.107l39.9355 -39.9355l-175.816 -175.816l170.047 -170.047l-41.291 -41.291zM42.3418 188.436z" />
    <glyph glyph-name="uniF102" unicode="&#xf102;" 
d="M250.88 -43.5195c-132.901 0 -240.64 107.737 -240.64 240.64c0 132.901 107.738 240.64 240.64 240.64c132.902 0 240.64 -107.738 240.64 -240.64c0 -132.902 -107.737 -240.64 -240.64 -240.64zM250.88 -21.6436c120.82 0 218.764 97.9434 218.764 218.764
c0 120.819 -97.9434 218.764 -218.764 218.764c-120.819 0 -218.764 -97.9443 -218.764 -218.764c0 -120.82 97.9443 -218.764 218.764 -218.764zM250.88 -21.6436zM155.54 112.34l78.9648 76.2549l-76.2549 78.9648l16.9209 16.3398l76.2549 -78.9639l78.9639 76.2549
l16.3398 -16.9209l-78.9639 -76.2549l76.2549 -78.9648l-16.9209 -16.3398l-76.2549 78.9639l-78.9639 -76.2549zM155.54 112.34z" />
    <glyph glyph-name="uniF103" unicode="&#xf103;" 
d="M54.6396 31.9883l166.33 160.623l-160.623 166.33l35.6416 34.4189l160.623 -166.33l166.33 160.623l34.4189 -35.6416l-166.33 -160.623l160.623 -166.33l-35.6416 -34.4189l-160.623 166.33l-166.33 -160.623zM54.6396 31.9883z" />
    <glyph glyph-name="uniF104" unicode="&#xf104;" 
d="M10.2402 197.12c0 132.901 107.738 240.64 240.64 240.64c132.902 0 240.64 -107.738 240.64 -240.64c0 -132.902 -107.737 -240.64 -240.64 -240.64c-132.901 0 -240.64 107.737 -240.64 240.64zM279.757 370.381v-211.764h-28.877h-125.133v28.877h125.133v182.887
h28.877zM462.644 197.12c0 116.953 -94.8096 211.763 -211.764 211.763c-116.953 0 -211.763 -94.8096 -211.763 -211.763c0 -116.954 94.8096 -211.764 211.763 -211.764c116.954 0 211.764 94.8096 211.764 211.764zM462.644 197.12z" />
    <glyph glyph-name="uniF105" unicode="&#xf105;" 
d="M286.866 -50.4863h-99.8945v240.658h-49.9062v82.9355h49.9062v49.7949c0 67.6582 28.1807 107.891 108.245 107.891h66.6562v-82.9443h-41.6641c-31.168 0 -33.2295 -11.5908 -33.2295 -33.2217l-0.113281 -41.5098h75.4785l-8.83203 -82.9355h-66.6465v-240.668z
M286.866 -50.4863z" />
    <glyph glyph-name="uniF106" unicode="&#xf106;" 
d="M329.778 82.5029h-282.127c-19.9248 0 -37.4111 19.0605 -37.4111 40.792v144.943c0 20.0439 15.3848 34.0498 37.4111 34.0498h282.127c22.4482 0 38.748 -14.3184 38.748 -34.0498v-53.1387l122.993 73.2217v-185.367l-122.993 73.2158v-52.875
c0 -21.3516 -18.4707 -40.792 -38.748 -40.792v0zM47.6514 285.805c-10.3311 0 -21.3691 -4.61621 -21.3691 -17.5664v-144.943c0 -12.7197 10.1826 -24.3076 21.3691 -24.3076h282.127c11.459 0 22.7051 12.0381 22.7051 24.3076v144.943
c0 12.1377 -11.4062 17.5664 -22.7051 17.5664h-282.127v0zM367.831 195.638l107.646 -64.084v128.168l-107.646 -64.084v0zM367.831 195.638z" />
    <glyph glyph-name="uniF107" unicode="&#xf107;" 
d="M209.454 250.182h23.2734h46.5449v-186.182h23.2734v-11.6367h-23.2734h-46.5449h-23.2734v11.6367h23.2734v174.546h-23.2734v11.6357zM256 -40.7275c128.531 0 232.728 104.196 232.728 232.728s-104.196 232.728 -232.728 232.728
s-232.728 -104.196 -232.728 -232.728s104.196 -232.728 232.728 -232.728zM256 -64c-141.385 0 -256 114.615 -256 256s114.615 256 256 256s256 -114.615 256 -256s-114.615 -256 -256 -256zM256 279.272c-19.2793 0 -34.9092 15.6299 -34.9092 34.9092
c0 19.2803 15.6299 34.9092 34.9092 34.9092s34.9092 -15.6289 34.9092 -34.9092c0 -19.2793 -15.6299 -34.9092 -34.9092 -34.9092zM256 279.272z" />
    <glyph glyph-name="uniF108" unicode="&#xf108;" 
d="M67.4258 236.197c0 -71.2227 -0.00683594 -142.446 0.00683594 -213.669c0 -10.2451 8.87207 -19.0547 19.1172 -19.0547c112.941 -0.00683594 225.876 -0.00683594 338.818 0c10.3418 0 19.1641 8.79492 19.1641 19.1162c0.00683594 71.1406 0 142.274 0 213.408
v1.47754h-45.9434c6.4873 -20.7314 8.47949 -41.8203 5.9375 -63.3145c-2.55664 -21.5 -9.4834 -41.5107 -20.7666 -59.9873c-11.29 -18.499 -25.9258 -33.8223 -43.8477 -46.0186c-46.4512 -31.6367 -107.608 -34.4199 -156.898 -6.75488
c-24.917 13.9697 -44.4805 33.4502 -58.1201 58.5518c-20.3467 37.457 -23.5977 76.7686 -11.6611 117.558c-15.2412 -0.0136719 -30.4209 -0.0136719 -45.8066 -0.0136719v-1.29883zM456.021 -47.3271c-2.47363 -0.536133 -4.98145 -0.886719 -7.48242 -1.3125h-385.078
c-1.02344 0.165039 -2.05469 0.364258 -3.07812 0.487305c-21.1719 2.72168 -38.9688 18.8828 -43.6826 39.7314c-0.549805 2.43262 -0.900391 4.89941 -1.33984 7.3457v386.13c0.157227 0.900391 0.342773 1.79395 0.466797 2.69336
c3.03711 21.6045 18.8145 38.7764 40.1367 43.6348c2.2959 0.521484 4.63867 0.837891 6.96777 1.25684h386.137c0.892578 -0.157227 1.7793 -0.357422 2.68652 -0.473633c21.8447 -2.98926 39.6348 -19.7285 43.8477 -41.2979
c0.412109 -2.10254 0.701172 -4.21875 1.03711 -6.3291v-385.078c-0.350586 -2.14453 -0.652344 -4.31543 -1.06445 -6.45312c-3.8418 -19.7686 -19.9004 -36.1641 -39.5537 -40.335zM158.481 193.478c-0.769531 -54.5664 42.9131 -97.8232 95.2822 -98.9502
c54.4912 -1.16797 98.5654 42.3701 99.7139 95.3223c1.1748 54.6074 -42.8721 99.7119 -97.4736 99.6777c-53.3789 0.0341797 -96.7734 -42.9131 -97.5225 -96.0498zM426.034 309.207c10.1904 0.254883 18.4912 8.98828 18.4912 19.1924
c0.00683594 15.1924 0.00683594 30.3926 0 45.585c0 10.8984 -8.62305 19.5703 -19.5078 19.5771c-15.1523 0.00683594 -30.3037 0.0136719 -45.4629 0c-10.8574 -0.0136719 -19.5088 -8.70605 -19.5156 -19.6045
c-0.00683594 -15.0615 -0.0478516 -30.124 0.0556641 -45.1934c0.0136719 -2.24707 0.439453 -4.58301 1.1543 -6.71387c2.7207 -8.01855 10.0664 -12.9385 19.0615 -12.9805c7.31152 -0.0136719 14.623 0.00683594 21.9414 0.00683594
c7.91602 0.0898438 15.8594 -0.0615234 23.7822 0.130859zM426.034 309.207z" />
    <glyph glyph-name="uniF109" unicode="&#xf109;" 
d="M254.5 75.5537v126.607h-119.438v-126.607h119.438zM240.786 188.446v-99.1787h-92.0098v99.1787h92.0098zM373.384 75.5537v126.607h-119.446v-126.607h119.446zM359.67 188.446v-99.1787h-92.0186v99.1787h92.0186zM491.161 75.5537v126.607h-119.447v-126.607h119.447
zM477.446 188.446v-99.1787h-92.0176v99.1787h92.0176zM491.429 212.205v251.795h-470.857v-251.795h470.857zM477.714 450.286v-224.366h-443.428v224.366h443.428zM140.009 202.161h-119.438v-126.607h119.438v126.607zM34.2861 188.446h92.0088v-99.1787h-92.0088
v99.1787zM27.4287 82.4111zM373.384 75.5537v126.607h-119.446v-126.607h119.446zM359.67 188.446v-99.1787h-92.0186v99.1787h92.0186zM491.161 75.5537v126.607h-119.447v-126.607h119.447zM477.446 188.446v-99.1787h-92.0176v99.1787h92.0176zM491.429 212.205v251.795
h-470.857v-251.795h470.857zM477.714 450.286v-224.366h-443.428v224.366h443.428zM140.009 202.161h-119.438v-126.607h119.438v126.607zM34.2861 188.446h92.0088v-99.1787h-92.0088v99.1787zM27.4287 82.4111zM491.161 75.5537v126.607h-119.447v-126.607h119.447z
M477.446 188.446v-99.1787h-92.0176v99.1787h92.0176zM491.429 212.205v251.795h-470.857v-251.795h470.857zM477.714 450.286v-224.366h-443.428v224.366h443.428zM140.009 202.161h-119.438v-126.607h119.438v126.607zM34.2861 188.446h92.0088v-99.1787h-92.0088v99.1787
zM27.4287 82.4111zM491.429 212.205v251.795h-470.857v-251.795h470.857zM477.714 450.286v-224.366h-443.428v224.366h443.428zM140.009 202.161h-119.438v-126.607h119.438v126.607zM34.2861 188.446h92.0088v-99.1787h-92.0088v99.1787zM27.4287 82.4111z
M140.009 202.161h-119.438v-126.607h119.438v126.607zM34.2861 188.446h92.0088v-99.1787h-92.0088v99.1787zM27.4287 82.4111zM27.4287 82.4111z" />
    <glyph glyph-name="uniF10A" unicode="&#xf10a;" 
d="M255.614 130.866v122.268h-119.578v-122.268h119.578zM243.326 240.846v-97.6914h-95.002v97.6914h95.002zM253.664 6.65625v122.258h-119.578v-122.258h119.578zM241.376 116.626v-97.6816h-95.002v97.6816h95.002zM382.994 6.65625v122.258h-119.578v-122.258h119.578z
M370.706 116.626v-97.6816h-95.002v97.6816h95.002zM502.514 6.65625v122.258h-119.578v-122.258h119.578zM490.226 116.626v-97.6816h-95.002v97.6816h95.002zM9.21582 255.086h243.428v122.258h-243.428v-122.258zM240.356 267.374h-218.853v97.6816h218.853v-97.6816z
M502.784 130.866v244.208h-238.818v-244.208h238.818zM490.496 362.786v-219.632h-214.242v219.632h214.242zM128.794 253.134h-119.578v-122.268h119.578v122.268zM21.5039 240.846h95.002v-97.6914h-95.002v97.6914zM128.794 128.914h-119.578v-122.258h119.578v122.258z
M21.5039 116.626h95.002v-97.6816h-95.002v97.6816zM15.3604 12.7998zM253.664 6.65625v122.258h-119.578v-122.258h119.578zM241.376 116.626v-97.6816h-95.002v97.6816h95.002zM382.994 6.65625v122.258h-119.578v-122.258h119.578zM370.706 116.626v-97.6816h-95.002
v97.6816h95.002zM502.514 6.65625v122.258h-119.578v-122.258h119.578zM490.226 116.626v-97.6816h-95.002v97.6816h95.002zM9.21582 255.086h243.428v122.258h-243.428v-122.258zM240.356 267.374h-218.853v97.6816h218.853v-97.6816zM502.784 130.866v244.208h-238.818
v-244.208h238.818zM490.496 362.786v-219.632h-214.242v219.632h214.242zM128.794 253.134h-119.578v-122.268h119.578v122.268zM21.5039 240.846h95.002v-97.6914h-95.002v97.6914zM128.794 128.914h-119.578v-122.258h119.578v122.258zM21.5039 116.626h95.002v-97.6816
h-95.002v97.6816zM15.3604 12.7998zM382.994 6.65625v122.258h-119.578v-122.258h119.578zM370.706 116.626v-97.6816h-95.002v97.6816h95.002zM502.514 6.65625v122.258h-119.578v-122.258h119.578zM490.226 116.626v-97.6816h-95.002v97.6816h95.002zM9.21582 255.086
h243.428v122.258h-243.428v-122.258zM240.356 267.374h-218.853v97.6816h218.853v-97.6816zM502.784 130.866v244.208h-238.818v-244.208h238.818zM490.496 362.786v-219.632h-214.242v219.632h214.242zM128.794 253.134h-119.578v-122.268h119.578v122.268z
M21.5039 240.846h95.002v-97.6914h-95.002v97.6914zM128.794 128.914h-119.578v-122.258h119.578v122.258zM21.5039 116.626h95.002v-97.6816h-95.002v97.6816zM15.3604 12.7998zM502.514 6.65625v122.258h-119.578v-122.258h119.578zM490.226 116.626v-97.6816h-95.002
v97.6816h95.002zM9.21582 255.086h243.428v122.258h-243.428v-122.258zM240.356 267.374h-218.853v97.6816h218.853v-97.6816zM502.784 130.866v244.208h-238.818v-244.208h238.818zM490.496 362.786v-219.632h-214.242v219.632h214.242zM128.794 253.134h-119.578v-122.268
h119.578v122.268zM21.5039 240.846h95.002v-97.6914h-95.002v97.6914zM128.794 128.914h-119.578v-122.258h119.578v122.258zM21.5039 116.626h95.002v-97.6816h-95.002v97.6816zM15.3604 12.7998zM9.21582 255.086h243.428v122.258h-243.428v-122.258zM240.356 267.374
h-218.853v97.6816h218.853v-97.6816zM502.784 130.866v244.208h-238.818v-244.208h238.818zM490.496 362.786v-219.632h-214.242v219.632h214.242zM128.794 253.134h-119.578v-122.268h119.578v122.268zM21.5039 240.846h95.002v-97.6914h-95.002v97.6914zM128.794 128.914
h-119.578v-122.258h119.578v122.258zM21.5039 116.626h95.002v-97.6816h-95.002v97.6816zM15.3604 12.7998zM502.784 130.866v244.208h-238.818v-244.208h238.818zM490.496 362.786v-219.632h-214.242v219.632h214.242zM128.794 253.134h-119.578v-122.268h119.578v122.268z
M21.5039 240.846h95.002v-97.6914h-95.002v97.6914zM128.794 128.914h-119.578v-122.258h119.578v122.258zM21.5039 116.626h95.002v-97.6816h-95.002v97.6816zM15.3604 12.7998zM128.794 253.134h-119.578v-122.268h119.578v122.268zM21.5039 240.846h95.002v-97.6914
h-95.002v97.6914zM128.794 128.914h-119.578v-122.258h119.578v122.258zM21.5039 116.626h95.002v-97.6816h-95.002v97.6816zM15.3604 12.7998zM128.794 128.914h-119.578v-122.258h119.578v122.258zM21.5039 116.626h95.002v-97.6816h-95.002v97.6816zM15.3604 12.7998z
M15.3604 12.7998z" />
    <glyph glyph-name="uniF10B" unicode="&#xf10b;" 
d="M376.814 257.386v119.958h-119.059v-119.958h119.059zM364.526 365.056v-95.3818h-94.4824v95.3818h94.4824zM128.274 377.014h-119.059v-119.968h119.059v119.968zM21.5039 364.726h94.4824v-95.3916h-94.4824v95.3916zM252.544 257.046v119.968h-119.058v-119.968
h119.058zM240.256 364.726v-95.3916h-94.4814v95.3916h94.4814zM502.784 257.386v119.958h-119.059v-119.958h119.059zM490.496 365.056v-95.3818h-94.4824v95.3818h94.4824zM376.814 132.186v119.958h-119.059v-119.958h119.059zM364.526 239.856v-95.3828h-94.4824
v95.3828h94.4824zM128.274 251.814h-119.059v-119.958h119.059v119.958zM21.5039 239.526h94.4824v-95.3828h-94.4824v95.3828zM252.544 131.856v119.958h-119.058v-119.958h119.058zM240.256 239.526v-95.3828h-94.4814v95.3828h94.4814zM502.784 132.186v119.958h-119.059
v-119.958h119.059zM490.496 239.856v-95.3828h-94.4824v95.3828h94.4824zM376.814 6.98633v119.968h-119.059v-119.968h119.059zM364.526 114.666v-95.3916h-94.4824v95.3916h94.4824zM128.274 126.614h-119.059v-119.958h119.059v119.958zM21.5039 114.326h94.4824
v-95.3818h-94.4824v95.3818zM252.544 6.65625v119.958h-119.058v-119.958h119.058zM240.256 114.326v-95.3818h-94.4814v95.3818h94.4814zM502.784 6.98633v119.968h-119.059v-119.968h119.059zM490.496 114.666v-95.3916h-94.4824v95.3916h94.4824zM496.64 120.81z
M128.274 377.014h-119.059v-119.968h119.059v119.968zM21.5039 364.726h94.4824v-95.3916h-94.4824v95.3916zM252.544 257.046v119.968h-119.058v-119.968h119.058zM240.256 364.726v-95.3916h-94.4814v95.3916h94.4814zM502.784 257.386v119.958h-119.059v-119.958h119.059
zM490.496 365.056v-95.3818h-94.4824v95.3818h94.4824zM376.814 132.186v119.958h-119.059v-119.958h119.059zM364.526 239.856v-95.3828h-94.4824v95.3828h94.4824zM128.274 251.814h-119.059v-119.958h119.059v119.958zM21.5039 239.526h94.4824v-95.3828h-94.4824
v95.3828zM252.544 131.856v119.958h-119.058v-119.958h119.058zM240.256 239.526v-95.3828h-94.4814v95.3828h94.4814zM502.784 132.186v119.958h-119.059v-119.958h119.059zM490.496 239.856v-95.3828h-94.4824v95.3828h94.4824zM376.814 6.98633v119.968h-119.059
v-119.968h119.059zM364.526 114.666v-95.3916h-94.4824v95.3916h94.4824zM128.274 126.614h-119.059v-119.958h119.059v119.958zM21.5039 114.326h94.4824v-95.3818h-94.4824v95.3818zM252.544 6.65625v119.958h-119.058v-119.958h119.058zM240.256 114.326v-95.3818
h-94.4814v95.3818h94.4814zM502.784 6.98633v119.968h-119.059v-119.968h119.059zM490.496 114.666v-95.3916h-94.4824v95.3916h94.4824zM496.64 120.81zM252.544 257.046v119.968h-119.058v-119.968h119.058zM240.256 364.726v-95.3916h-94.4814v95.3916h94.4814z
M502.784 257.386v119.958h-119.059v-119.958h119.059zM490.496 365.056v-95.3818h-94.4824v95.3818h94.4824zM376.814 132.186v119.958h-119.059v-119.958h119.059zM364.526 239.856v-95.3828h-94.4824v95.3828h94.4824zM128.274 251.814h-119.059v-119.958h119.059v119.958
zM21.5039 239.526h94.4824v-95.3828h-94.4824v95.3828zM252.544 131.856v119.958h-119.058v-119.958h119.058zM240.256 239.526v-95.3828h-94.4814v95.3828h94.4814zM502.784 132.186v119.958h-119.059v-119.958h119.059zM490.496 239.856v-95.3828h-94.4824v95.3828
h94.4824zM376.814 6.98633v119.968h-119.059v-119.968h119.059zM364.526 114.666v-95.3916h-94.4824v95.3916h94.4824zM128.274 126.614h-119.059v-119.958h119.059v119.958zM21.5039 114.326h94.4824v-95.3818h-94.4824v95.3818zM252.544 6.65625v119.958h-119.058
v-119.958h119.058zM240.256 114.326v-95.3818h-94.4814v95.3818h94.4814zM502.784 6.98633v119.968h-119.059v-119.968h119.059zM490.496 114.666v-95.3916h-94.4824v95.3916h94.4824zM496.64 120.81zM502.784 257.386v119.958h-119.059v-119.958h119.059zM490.496 365.056
v-95.3818h-94.4824v95.3818h94.4824zM376.814 132.186v119.958h-119.059v-119.958h119.059zM364.526 239.856v-95.3828h-94.4824v95.3828h94.4824zM128.274 251.814h-119.059v-119.958h119.059v119.958zM21.5039 239.526h94.4824v-95.3828h-94.4824v95.3828z
M252.544 131.856v119.958h-119.058v-119.958h119.058zM240.256 239.526v-95.3828h-94.4814v95.3828h94.4814zM502.784 132.186v119.958h-119.059v-119.958h119.059zM490.496 239.856v-95.3828h-94.4824v95.3828h94.4824zM376.814 6.98633v119.968h-119.059v-119.968h119.059
zM364.526 114.666v-95.3916h-94.4824v95.3916h94.4824zM128.274 126.614h-119.059v-119.958h119.059v119.958zM21.5039 114.326h94.4824v-95.3818h-94.4824v95.3818zM252.544 6.65625v119.958h-119.058v-119.958h119.058zM240.256 114.326v-95.3818h-94.4814v95.3818
h94.4814zM502.784 6.98633v119.968h-119.059v-119.968h119.059zM490.496 114.666v-95.3916h-94.4824v95.3916h94.4824zM496.64 120.81zM376.814 132.186v119.958h-119.059v-119.958h119.059zM364.526 239.856v-95.3828h-94.4824v95.3828h94.4824zM128.274 251.814h-119.059
v-119.958h119.059v119.958zM21.5039 239.526h94.4824v-95.3828h-94.4824v95.3828zM252.544 131.856v119.958h-119.058v-119.958h119.058zM240.256 239.526v-95.3828h-94.4814v95.3828h94.4814zM502.784 132.186v119.958h-119.059v-119.958h119.059zM490.496 239.856
v-95.3828h-94.4824v95.3828h94.4824zM376.814 6.98633v119.968h-119.059v-119.968h119.059zM364.526 114.666v-95.3916h-94.4824v95.3916h94.4824zM128.274 126.614h-119.059v-119.958h119.059v119.958zM21.5039 114.326h94.4824v-95.3818h-94.4824v95.3818z
M252.544 6.65625v119.958h-119.058v-119.958h119.058zM240.256 114.326v-95.3818h-94.4814v95.3818h94.4814zM502.784 6.98633v119.968h-119.059v-119.968h119.059zM490.496 114.666v-95.3916h-94.4824v95.3916h94.4824zM496.64 120.81zM128.274 251.814h-119.059v-119.958
h119.059v119.958zM21.5039 239.526h94.4824v-95.3828h-94.4824v95.3828zM252.544 131.856v119.958h-119.058v-119.958h119.058zM240.256 239.526v-95.3828h-94.4814v95.3828h94.4814zM502.784 132.186v119.958h-119.059v-119.958h119.059zM490.496 239.856v-95.3828
h-94.4824v95.3828h94.4824zM376.814 6.98633v119.968h-119.059v-119.968h119.059zM364.526 114.666v-95.3916h-94.4824v95.3916h94.4824zM128.274 126.614h-119.059v-119.958h119.059v119.958zM21.5039 114.326h94.4824v-95.3818h-94.4824v95.3818zM252.544 6.65625v119.958
h-119.058v-119.958h119.058zM240.256 114.326v-95.3818h-94.4814v95.3818h94.4814zM502.784 6.98633v119.968h-119.059v-119.968h119.059zM490.496 114.666v-95.3916h-94.4824v95.3916h94.4824zM496.64 120.81zM252.544 131.856v119.958h-119.058v-119.958h119.058z
M240.256 239.526v-95.3828h-94.4814v95.3828h94.4814zM502.784 132.186v119.958h-119.059v-119.958h119.059zM490.496 239.856v-95.3828h-94.4824v95.3828h94.4824zM376.814 6.98633v119.968h-119.059v-119.968h119.059zM364.526 114.666v-95.3916h-94.4824v95.3916h94.4824
zM128.274 126.614h-119.059v-119.958h119.059v119.958zM21.5039 114.326h94.4824v-95.3818h-94.4824v95.3818zM252.544 6.65625v119.958h-119.058v-119.958h119.058zM240.256 114.326v-95.3818h-94.4814v95.3818h94.4814zM502.784 6.98633v119.968h-119.059v-119.968
h119.059zM490.496 114.666v-95.3916h-94.4824v95.3916h94.4824zM496.64 120.81zM502.784 132.186v119.958h-119.059v-119.958h119.059zM490.496 239.856v-95.3828h-94.4824v95.3828h94.4824zM376.814 6.98633v119.968h-119.059v-119.968h119.059zM364.526 114.666v-95.3916
h-94.4824v95.3916h94.4824zM128.274 126.614h-119.059v-119.958h119.059v119.958zM21.5039 114.326h94.4824v-95.3818h-94.4824v95.3818zM252.544 6.65625v119.958h-119.058v-119.958h119.058zM240.256 114.326v-95.3818h-94.4814v95.3818h94.4814zM502.784 6.98633v119.968
h-119.059v-119.968h119.059zM490.496 114.666v-95.3916h-94.4824v95.3916h94.4824zM496.64 120.81zM376.814 6.98633v119.968h-119.059v-119.968h119.059zM364.526 114.666v-95.3916h-94.4824v95.3916h94.4824zM128.274 126.614h-119.059v-119.958h119.059v119.958z
M21.5039 114.326h94.4824v-95.3818h-94.4824v95.3818zM252.544 6.65625v119.958h-119.058v-119.958h119.058zM240.256 114.326v-95.3818h-94.4814v95.3818h94.4814zM502.784 6.98633v119.968h-119.059v-119.968h119.059zM490.496 114.666v-95.3916h-94.4824v95.3916h94.4824
zM496.64 120.81zM128.274 126.614h-119.059v-119.958h119.059v119.958zM21.5039 114.326h94.4824v-95.3818h-94.4824v95.3818zM252.544 6.65625v119.958h-119.058v-119.958h119.058zM240.256 114.326v-95.3818h-94.4814v95.3818h94.4814zM502.784 6.98633v119.968h-119.059
v-119.968h119.059zM490.496 114.666v-95.3916h-94.4824v95.3916h94.4824zM496.64 120.81zM252.544 6.65625v119.958h-119.058v-119.958h119.058zM240.256 114.326v-95.3818h-94.4814v95.3818h94.4814zM502.784 6.98633v119.968h-119.059v-119.968h119.059zM490.496 114.666
v-95.3916h-94.4824v95.3916h94.4824zM496.64 120.81zM502.784 6.98633v119.968h-119.059v-119.968h119.059zM490.496 114.666v-95.3916h-94.4824v95.3916h94.4824zM496.64 120.81zM496.64 120.81z" />
    <glyph glyph-name="uniF10C" unicode="&#xf10c;" 
d="M253.354 -23.9941v138.729h-123.598v-138.729h123.598zM241.066 102.446v-114.152h-99.0225v114.152h99.0225zM378.504 -23.9941v138.729h-123.598v-138.729h123.598zM366.216 102.446v-114.152h-99.0215v114.152h99.0215zM502.504 -23.9941v138.729h-123.598v-138.729
h123.598zM490.216 102.446v-114.152h-99.0215v114.152h99.0215zM502.784 129.066v278.928h-493.568v-278.928h493.568zM490.496 395.706v-254.353h-468.992v254.353h468.992zM132.814 114.734h-123.599v-138.729h123.599v138.729zM21.5039 102.446h99.0225v-114.152
h-99.0225v114.152zM15.3604 -17.8496zM378.504 -23.9941v138.729h-123.598v-138.729h123.598zM366.216 102.446v-114.152h-99.0215v114.152h99.0215zM502.504 -23.9941v138.729h-123.598v-138.729h123.598zM490.216 102.446v-114.152h-99.0215v114.152h99.0215z
M502.784 129.066v278.928h-493.568v-278.928h493.568zM490.496 395.706v-254.353h-468.992v254.353h468.992zM132.814 114.734h-123.599v-138.729h123.599v138.729zM21.5039 102.446h99.0225v-114.152h-99.0225v114.152zM15.3604 -17.8496zM502.504 -23.9941v138.729
h-123.598v-138.729h123.598zM490.216 102.446v-114.152h-99.0215v114.152h99.0215zM502.784 129.066v278.928h-493.568v-278.928h493.568zM490.496 395.706v-254.353h-468.992v254.353h468.992zM132.814 114.734h-123.599v-138.729h123.599v138.729zM21.5039 102.446
h99.0225v-114.152h-99.0225v114.152zM15.3604 -17.8496zM502.784 129.066v278.928h-493.568v-278.928h493.568zM490.496 395.706v-254.353h-468.992v254.353h468.992zM132.814 114.734h-123.599v-138.729h123.599v138.729zM21.5039 102.446h99.0225v-114.152h-99.0225
v114.152zM15.3604 -17.8496zM132.814 114.734h-123.599v-138.729h123.599v138.729zM21.5039 102.446h99.0225v-114.152h-99.0225v114.152zM15.3604 -17.8496zM15.3604 -17.8496z" />
    <glyph glyph-name="uniF10D" unicode="&#xf10d;" 
d="M274.261 58.8799c-55.126 0 -99.8203 44.3467 -99.8203 99.0537c0 44.3418 43.7051 81.874 84.1836 94.5078c8.41211 -6.74219 -2.18066 -13.6592 0 -24.585c-29.5586 -8.30957 -59.376 -37.9287 -59.376 -69.9229c0 -38.6152 42.3623 -75.7246 81.2803 -75.7246h106.277
c38.9023 0 82.377 37.1094 82.377 75.7246c0 38.6104 -43.4697 69.9229 -82.377 69.9229h-42.6348c-0.975586 10.1182 -1.90332 15.332 -5.20703 24.585h52.7314c55.1309 0 99.8242 -39.7959 99.8242 -94.5078c0 -54.7021 -44.6885 -99.0537 -99.8242 -99.0537h-117.435z
M227.499 325.12c55.126 0 99.8203 -44.3467 99.8203 -99.0537c0 -44.3418 -43.7051 -81.874 -84.1836 -94.5078c-8.41211 6.74219 2.18066 13.6592 0 24.585c29.5586 8.30957 59.376 37.9287 59.376 69.9229c0 38.6152 -42.3623 75.7246 -81.2793 75.7246h-106.278
c-38.9023 0 -82.377 -37.1094 -82.377 -75.7246c0 -38.6104 43.4697 -69.9229 82.377 -69.9229h42.6348c0.976562 -10.1182 1.9043 -15.332 5.20703 -24.585h-52.7305c-55.1309 0 -99.8252 39.7959 -99.8252 94.5078c0 54.7021 44.6895 99.0537 99.8252 99.0537h117.434z
M227.499 325.12z" />
    <glyph glyph-name="uniF10E" unicode="&#xf10e;" 
d="M357.146 397.639v0c-47.8682 0 -88.9111 -29.8359 -106.267 -72.2725c-17.3545 42.4365 -58.3887 72.2725 -106.267 72.2725c-63.5771 0 -115.122 -52.5918 -115.122 -117.458c0 -31.5742 12.2441 -60.1924 32.1016 -81.2979l189.287 -194.08l185.919 190.643
c21.8496 21.3906 35.4697 51.4131 35.4697 84.7354c0 64.876 -51.5547 117.458 -115.122 117.458zM357.146 417.28v0v0c74.0977 0 134.373 -61.5088 134.373 -137.1c0 -37.6533 -14.707 -72.7734 -41.0723 -98.5928l-185.918 -190.643l-13.6494 -13.9854l-13.6494 13.9854
l-189.518 194.336c-24.1699 25.6719 -37.4727 59.377 -37.4727 94.8994c0 75.5908 60.2852 137.1 134.373 137.1c42.3428 0 81.2305 -20.0645 106.267 -53.1309c25.0361 33.0664 63.9238 53.1309 106.267 53.1309zM357.146 417.28z" />
    <glyph glyph-name="uniF10F" unicode="&#xf10f;" 
d="M254.834 431.314v0c130.295 0 235.922 -105.617 235.922 -235.922c0 -130.304 -105.627 -235.921 -235.922 -235.921s-235.922 105.617 -235.922 235.921c0 130.305 105.627 235.922 235.922 235.922zM254.834 -21.6553v0c119.688 0 217.048 97.3701 217.048 217.048
c0 119.679 -97.3604 217.048 -217.048 217.048s-217.048 -97.3691 -217.048 -217.048c0 -119.678 97.3604 -217.048 217.048 -217.048zM254.834 -21.6553zM155.79 278.14v-20.4795h199.62v20.4795h-199.62zM155.79 202.64v-20.4795h199.62v20.4795h-199.62zM155.79 127.15
v-20.4805h118.68v20.4805h-118.68zM303.322 143.859c-0.708984 0.709961 -0.714844 1.84082 -0.0205078 2.53516l7.74023 7.74023c0.706055 0.706055 1.8291 0.685547 2.53516 -0.0205078l20.5137 -20.5137l20.5137 20.5137
c0.708984 0.709961 1.84082 0.714844 2.53516 0.0205078l7.74023 -7.74023c0.706055 -0.706055 0.68457 -1.8291 -0.0205078 -2.53516l-20.5137 -20.5137l20.5137 -20.5137c0.708984 -0.708984 0.714844 -1.83984 0.0205078 -2.53516l-7.74023 -7.73926
c-0.706055 -0.706055 -1.8291 -0.685547 -2.53516 0.0205078l-20.5137 20.5137l-20.5137 -20.5137c-0.709961 -0.709961 -1.84082 -0.714844 -2.53516 -0.0205078l-7.74023 7.73926c-0.706055 0.706055 -0.68457 1.83008 0.0205078 2.53516l20.5137 20.5137z
M303.322 143.859z" />
    <glyph glyph-name="uniF110" unicode="&#xf110;" 
d="M251.747 435.783v0c130.374 0 236.066 -105.683 236.066 -236.066c0 -130.385 -105.692 -236.066 -236.066 -236.066c-130.375 0 -236.066 105.682 -236.066 236.066c0 130.384 105.691 236.066 236.066 236.066zM251.747 -17.4648v0
c119.761 0 217.181 97.4297 217.181 217.182c0 119.751 -97.4199 217.181 -217.181 217.181c-119.762 0 -217.182 -97.4297 -217.182 -217.181c0 -119.752 97.4199 -217.182 217.182 -217.182zM251.747 -17.4648zM152.64 273.92v-20.4795h199.75v20.4795h-199.75z
M152.64 206.96v-20.4795h199.75v20.4795h-199.75zM228.18 140.8v-20.4795h118.761v20.4795h-118.761zM179.92 168.84l8.54785 -8.54785l-27.9365 -27.9365l25.8916 -25.8916l-9.2334 -9.2334l-34.4395 34.4395zM179.92 168.84z" />
    <glyph glyph-name="uniF111" unicode="&#xf111;" 
d="M256 427.52v0c130.073 0 235.52 -105.438 235.52 -235.52s-105.446 -235.52 -235.52 -235.52s-235.52 105.438 -235.52 235.52s105.446 235.52 235.52 235.52zM256 -23.04v0c118.58 0 215.04 96.4688 215.04 215.04s-96.46 215.04 -215.04 215.04
s-215.04 -96.4688 -215.04 -215.04s96.46 -215.04 215.04 -215.04zM256 -23.04zM157.54 273.92v-20.4795h196.92v20.4795h-196.92zM153.6 202.24v-20.4805h194.561v20.4805h-194.561zM157.54 130.56v-20.4795h196.92v20.4795h-196.92z" />
    <glyph glyph-name="uniF112" unicode="&#xf112;" 
d="M10.2402 197.12c0 25.4492 20.2002 46.0801 45.1201 46.0801c24.9189 0 45.1201 -20.6309 45.1201 -46.0801s-20.2012 -46.0801 -45.1201 -46.0801c-24.9199 0 -45.1201 20.6309 -45.1201 46.0801zM401.28 197.12c0 25.4492 20.2002 46.0801 45.1201 46.0801
c24.9189 0 45.1191 -20.6309 45.1191 -46.0801s-20.2002 -46.0801 -45.1191 -46.0801c-24.9199 0 -45.1201 20.6309 -45.1201 46.0801zM217.859 218.943c-0.739258 0.754883 -0.745117 1.95801 -0.0214844 2.69629l8.0625 8.23438
c0.735352 0.750977 1.90527 0.729492 2.64062 -0.0214844l21.3682 -21.8232l21.3691 21.8232c0.738281 0.754883 1.91699 0.759766 2.64062 0.0214844l8.0625 -8.23438c0.735352 -0.750977 0.713867 -1.94629 -0.0214844 -2.69629l-21.3682 -21.8232l21.3682 -21.8232
c0.739258 -0.754883 0.744141 -1.95801 0.0214844 -2.69727l-8.0625 -8.2334c-0.735352 -0.750977 -1.90625 -0.729492 -2.64062 0.0214844l-21.3691 21.8232l-21.3682 -21.8232c-0.739258 -0.754883 -1.91699 -0.760742 -2.64062 -0.0214844l-8.0625 8.2334
c-0.735352 0.751953 -0.713867 1.94629 0.0214844 2.69727l21.3682 21.8232zM217.859 218.943z" />
    <glyph glyph-name="uniF113" unicode="&#xf113;" 
d="M205.76 197.12c0 25.4492 20.2012 46.0801 45.1201 46.0801s45.1201 -20.6309 45.1201 -46.0801s-20.2012 -46.0801 -45.1201 -46.0801s-45.1201 20.6309 -45.1201 46.0801zM10.2402 197.12c0 25.4492 20.2002 46.0801 45.1201 46.0801
c24.9189 0 45.1201 -20.6309 45.1201 -46.0801s-20.2012 -46.0801 -45.1201 -46.0801c-24.9199 0 -45.1201 20.6309 -45.1201 46.0801zM401.28 197.12c0 25.4492 20.2002 46.0801 45.1201 46.0801c24.9189 0 45.1191 -20.6309 45.1191 -46.0801
s-20.2002 -46.0801 -45.1191 -46.0801c-24.9199 0 -45.1201 20.6309 -45.1201 46.0801zM401.28 197.12z" />
    <glyph glyph-name="uniF114" unicode="&#xf114;" 
d="M397.051 448c11.5469 0 20.9082 -9.27734 20.9082 -20.9102v-386.6c-0.736328 -18.1289 -7.59863 -52.2451 -78.3672 -52.2451c-78.3672 0 -78.3672 42.0381 -78.3672 57.4688c0 15.4316 0 57.4697 78.3672 57.4697c20.626 0 47.0205 10.2383 47.0205 10.2383v188.367
c0 11.501 -9.15332 18.9922 -20.4004 16.7432l-189.077 -37.8154c-11.2666 -2.25293 -20.4004 -13.4951 -20.4004 -24.8887v-262.178v-5.40527c-0.751953 -17.9961 -7.67871 -52.2451 -78.3672 -52.2451c-78.3672 0 -78.3672 41.9873 -78.3672 57.4697
c-0 15.4814 0 57.4688 78.3672 57.4688c20.626 0 47.0205 9.42676 47.0205 9.42676v210.002v104.4c0 11.5908 9.14355 22.8164 20.498 25.0869l240.727 48.1455h10.4385zM397.051 448z" />
    <glyph glyph-name="uniF115" unicode="&#xf115;" 
d="M419.978 201.801l-114.163 -114.163l-25.1602 25.1602l85.8047 85.8037l-76.2109 76.2109l28.3594 28.3594zM419.978 201.801z" />
    <glyph glyph-name="uniF116" unicode="&#xf116;" 
d="M476.16 192.337l-209.982 -209.982l-21.7627 21.7617l187.547 187.547l-188.22 188.221l22.4355 22.4355zM476.16 192.337z" />
    <glyph glyph-name="uniF117" unicode="&#xf117;" 
d="M296.96 294.4v-194.561h20.4805v194.561h-20.4805zM250.88 -43.5195c-132.901 0 -240.64 107.737 -240.64 240.64c0 132.901 107.738 240.64 240.64 240.64c132.902 0 240.64 -107.738 240.64 -240.64c0 -132.902 -107.737 -240.64 -240.64 -240.64zM184.32 294.4
v-194.561h20.4795v194.561h-20.4795zM184.32 294.4z" />
    <glyph glyph-name="uniF118" unicode="&#xf118;" 
d="M475.74 366.08h-449.721c-15.2051 0 -26.0195 -11.3955 -26.0195 -26.4199v-295.26c0 -15.0254 10.8145 -26.4199 26.0195 -26.4199h449.721c15.2061 0 26.0195 11.3945 26.0195 26.4199v295.26c0 15.0244 -10.8135 26.4199 -26.0195 26.4199zM475.74 345.6
c4.53418 0 5.54004 -0.744141 5.54004 -5.93945v-295.26c0 -5.19629 -1.00586 -5.94043 -5.54004 -5.94043h-449.721c-4.5332 0 -5.53906 0.744141 -5.53906 5.94043v295.26c0 5.19531 1.00586 5.93945 5.53906 5.93945h449.721zM26.0195 355.84zM26.0195 355.84z
M175.928 48.4434c0 0 124.579 141.565 145.964 141.565c21.3809 0 153.848 -141.565 153.848 -141.565v-8.08789c0 -8.00684 -7.19141 -8.08789 -15.7773 -8.08789h-268.259c-8.58594 0 -15.7764 0.0810547 -15.7764 8.08789
c0.000976562 8.00293 0.000976562 8.08789 0.000976562 8.08789v0zM175.928 48.4434zM148.314 36.3096v-4.04199h-106.515c-6.67969 0 -11.835 2.08398 -11.835 8.08789v4.04199s97.7734 93.0283 114.405 93.0283c7.37891 0 31.5264 -18.3271 56.0938 -38.7109
c-29.3037 -34.2012 -52.1494 -62.4053 -52.1494 -62.4053v0zM148.314 36.3096zM193.702 273.783c22.1963 0 40.1924 -18.4424 40.1924 -41.1973c0 -22.7559 -17.998 -41.2012 -40.1924 -41.2012c-22.1953 0 -40.1934 18.4453 -40.1934 41.2031
c0 22.7529 17.9961 41.1953 40.1934 41.1953v0zM193.702 273.783z" />
    <glyph glyph-name="uniF119" unicode="&#xf119;" 
d="M249.444 430.376v0c130.295 0 235.922 -105.617 235.922 -235.922c0 -130.304 -105.627 -235.921 -235.922 -235.921s-235.921 105.617 -235.921 235.921c0 130.305 105.626 235.922 235.921 235.922zM249.444 -22.5938v0c119.688 0 217.048 97.3701 217.048 217.048
c0 119.679 -97.3604 217.048 -217.048 217.048s-217.048 -97.3691 -217.048 -217.048c0 -119.678 97.3604 -217.048 217.048 -217.048zM249.444 -22.5938zM220.16 107.02v173.841l109.523 -86.9199zM209.92 85.8203l136.236 108.12l-136.236 108.119v-216.239z
M215.04 96.4199zM215.04 96.4199z" />
    <glyph glyph-name="uniF11A" unicode="&#xf11a;" 
d="M250.88 -43.5195c-132.901 0 -240.64 107.737 -240.64 240.64c0 132.901 107.738 240.64 240.64 240.64c132.902 0 240.64 -107.738 240.64 -240.64c0 -132.902 -107.737 -240.64 -240.64 -240.64zM250.88 -43.5195zM323.928 189.884
c5.00293 3.98145 5.00293 10.4912 0 14.4697l-110.309 87.998c-5 3.98047 -8.81934 1.98047 -8.81934 -4.44043v-181.585c0 -6.41992 3.81934 -8.41699 8.81934 -4.4375l110.309 87.9951v0zM323.928 189.884z" />
    <glyph glyph-name="uniF11B" unicode="&#xf11b;" 
d="M1.00586 373.007v0h502.69v-365.062h-502.69v365.062zM485.078 26.1982v0v328.556h-465.454v-328.556h465.454zM485.078 26.1982zM38.2422 409.514h428.218v-18.2529h-428.218v18.2529zM38.2422 409.514zM75.4785 446.02h353.745v-18.2529h-353.745v18.2529z
M75.4785 446.02zM221.843 249.021l102.149 -58.4199l-102.149 -58.4209v116.841v0zM221.843 249.021z" />
    <glyph glyph-name="uniF11C" unicode="&#xf11c;" 
d="M10.2402 186.88c0 132.902 107.738 240.64 240.64 240.64c132.902 0 240.64 -107.737 240.64 -240.64c0 -132.901 -107.737 -240.64 -240.64 -240.64c-132.901 0 -240.64 107.738 -240.64 240.64zM261.818 307.2v-109.382h109.382v-21.877h-109.382v-109.382h-21.877
v109.382h-109.382v21.877h109.382v109.382h21.877zM469.644 186.88c0 120.82 -97.9434 218.764 -218.764 218.764c-120.819 0 -218.764 -97.9434 -218.764 -218.764c0 -120.819 97.9443 -218.764 218.764 -218.764c120.82 0 218.764 97.9443 218.764 218.764z
M469.644 186.88z" />
    <glyph glyph-name="uniF11D" unicode="&#xf11d;" 
d="M20.4805 210.168h217.352v217.352h46.5762v-217.352h217.352v-46.5762h-217.352v-217.352h-46.5762v217.352h-217.352v46.5762zM20.4805 210.168z" />
    <glyph glyph-name="uniF11E" unicode="&#xf11e;" 
d="M35.8398 191.663l209.982 209.982l21.7627 -21.7617l-187.547 -187.547l188.22 -188.221l-22.4355 -22.4355zM35.8398 191.663z" />
    <glyph glyph-name="uniF11F" unicode="&#xf11f;" 
d="M524.104 151.689h25.4062c0 -168.353 -136.494 -304.872 -304.873 -304.872c-168.404 0 -304.873 136.52 -304.873 304.872c0 168.049 135.897 304.276 303.818 304.848v126.992l241.357 -139.721l-241.357 -139.746v127.068
c-153.617 -0.583984 -278.412 -125.696 -278.412 -279.441c0 -154.101 125.366 -279.467 279.467 -279.467s279.467 125.366 279.467 279.467zM524.104 151.689z" />
    <glyph glyph-name="uniF120" unicode="&#xf120;" 
d="M391.69 140.8h51.3965c-8.71484 -114.559 -104.429 -204.8 -221.221 -204.8c-122.533 0 -221.866 99.333 -221.866 221.866c0 122.534 99.333 221.867 221.866 221.867v68.2666l170.667 -102.4l-170.667 -102.399v85.333c-94.2559 0 -170.666 -76.4102 -170.666 -170.667
c0 -94.2559 76.4102 -170.666 170.666 -170.666c88.4971 0 161.262 67.3564 169.824 153.6zM391.69 140.8z" />
    <glyph glyph-name="uniF121" unicode="&#xf121;" 
d="M431.406 160.37v0h16.6406c0 -109.982 -89.3984 -199.168 -199.681 -199.168c-110.298 0 -199.68 89.1855 -199.68 199.168c0 109.782 89.0078 198.777 198.989 199.15v82.9619l158.08 -91.2773l-158.08 -91.293v83.0117
c-100.613 -0.381836 -182.35 -82.1152 -182.35 -182.554c0 -100.671 82.1104 -182.57 183.04 -182.57c100.931 0 183.04 81.8994 183.04 182.57zM264.316 413.694v0v-124.994l108.227 62.5049zM264.316 413.694z" />
    <glyph glyph-name="uniF122" unicode="&#xf122;" 
d="M484.113 325.12v-228.92l24.9902 -0.443359l-40.3408 -36.3652l-39.0684 37.7754l25.2734 -0.449219v200.021h-317.182l-22.4307 28.3818h368.758zM22.0938 58.8799v228.92l-24.9902 0.443359l40.3408 36.3652l39.0684 -37.7754l-25.2734 0.449219v-200.021h317.182
l22.4307 -28.3818h-368.758zM22.0938 58.8799z" />
    <glyph glyph-name="uniF123" unicode="&#xf123;" 
d="M319.332 159.155l122.07 -122.069l-30.4883 -30.4883l-122.069 122.07c-63.8389 -49.7197 -153.623 -47.5938 -209.262 8.04395c-60.5273 60.5273 -57.7246 161.463 6.25879 225.446s164.919 66.7861 225.446 6.25879
c55.6377 -55.6387 57.7637 -145.423 8.04395 -209.262zM293.492 154.508c57.249 57.248 59.7559 147.559 5.60059 201.714c-54.1553 54.1562 -144.467 51.6484 -201.715 -5.59961s-59.7559 -147.56 -5.59961 -201.715c54.1553 -54.1553 144.466 -51.6484 201.714 5.60059z
M293.492 154.508z" />
    <glyph glyph-name="uniF124" unicode="&#xf124;" 
d="M81.9199 -43.5195v337.92h124.497v-17.7861h-106.712v-302.349h302.35v302.349h-106.712v17.7861h124.497v-337.92h-337.92zM263.68 414.742l64 -63.8896l-12.7998 -12.7773l-54.9492 54.8535v-272.608h-18.1016v272.608l-54.9492 -54.8535l-12.7998 12.7773
l67.749 67.6318l9.05078 9.03516l9.05078 -9.03516zM263.68 414.742z" />
    <glyph glyph-name="uniF125" unicode="&#xf125;" 
d="M77.7393 254.854h84.3545l115.435 115.439v-346.348l-115.454 115.454h-84.335v115.454zM77.7393 254.854zM337.057 168.793l29.4639 28.4531l-28.4531 29.4648l7.36621 7.11328l28.4531 -29.4648l29.4639 28.4531l7.11328 -7.36523l-29.4639 -28.4541l28.4531 -29.4639
l-7.36621 -7.11328l-28.4531 29.4639l-29.4639 -28.4531zM337.057 168.793z" />
    <glyph glyph-name="uniF126" unicode="&#xf126;" 
d="M77.7393 254.854h84.3545l115.435 115.439v-346.348l-115.454 115.454h-84.335v115.454zM77.7393 254.854zM326.297 273.668v0c24.8975 -42.2041 24.8975 -110.858 0 -153.071l-12.0469 20.416c18.2568 30.9365 18.2568 81.2979 0 112.254zM326.297 273.668z
M369.319 314.476v0c45.1748 -64.7031 45.1748 -169.979 0 -234.691l-14.2471 20.4111c37.3066 53.46 37.3066 140.433 0 193.879zM369.319 314.476z" />
    <glyph glyph-name="uniF127" unicode="&#xf127;" 
d="M25.9287 169.904v0c0.96875 0 1.77148 -0.836914 1.91992 -2.02441l4.17188 -28.8203l-4.17188 -28.3311c-0.154297 -1.18652 -0.946289 -2.01074 -1.91992 -2.01074c-1.00391 0 -1.7998 0.832031 -1.93066 2.02344l-3.51758 28.3184l3.51758 28.8125
c0.129883 1.19531 0.926758 2.03223 1.93066 2.03223zM54.2871 187.742v0c1.01465 0 1.83789 -0.854492 2.00293 -2.09277l5.37598 -46.5859l-5.38184 -45.5684c-0.166016 -1.22949 -0.991211 -2.09082 -1.99707 -2.09082c-1.02539 0 -1.86914 0.881836 -2.00293 2.10352
l-4.73242 45.5557s4.73242 46.5762 4.73242 46.5859c0.138672 1.20996 0.983398 2.09277 2.00293 2.09277zM81.6943 198.833v0c1.47559 0 2.69141 -1.28516 2.82129 -2.9873l4.8252 -56.8008l-4.8252 -54.9434c-0.130859 -1.69922 -1.34766 -2.98535 -2.82129 -2.98535
c-1.49121 0 -2.71289 1.28418 -2.82715 2.98535l-4.24219 54.9434l4.24219 56.7891c0.120117 1.71289 1.33594 2.99902 2.82715 2.99902zM108.935 195.16v0c1.71777 0 3.10645 -1.4668 3.22852 -3.41309l4.54492 -52.7031l-4.54492 -55.4014
c-0.128906 -1.94824 -1.51562 -3.42773 -3.22852 -3.42773c-1.73926 0 -3.12012 1.47852 -3.23633 3.43262l-3.99902 55.3965l3.99902 52.6787c0.109375 1.95801 1.49609 3.4375 3.23633 3.4375zM136.179 228.622v0c1.93164 0 3.65234 -1.71387 3.76855 -3.89062
l4.38477 -85.708l-4.01074 -55.3984v0.0195312c0 -2.16992 -1.96191 -3.88477 -3.89355 -3.88477c-1.94238 0 -3.78906 1.70703 -3.88672 3.87207l-3.76953 55.3916l3.76953 85.708c0.0927734 2.17773 1.69727 3.89062 3.6377 3.89062zM163.421 248.648v0
c2.16406 0 3.94531 -1.89746 4.05371 -4.32812l3.97656 -105.314l-3.97656 -55.0215c-0.103516 -2.42578 -1.88867 -4.3291 -4.05273 -4.3291c-2.18359 0 -3.96387 1.90332 -4.05176 4.30859l-3.52539 55.042l3.51758 105.314
c0.0957031 2.42676 1.87598 4.32812 4.05859 4.32812zM190.825 262.172v0c2.64453 0 5.02051 -2.29883 5.10547 -5.22656l3.64648 -117.954l-2.94629 -54.1152v-0.00390625c0 -2.91895 -2.69043 -5.21289 -5.33984 -5.21289c-2.65527 0 -5.26367 2.29395 -5.33789 5.19531
l-3.03613 54.1396l3.03223 117.95c0.0722656 2.93555 2.21582 5.22754 4.87598 5.22754zM218.241 255.835v0c3.12695 0 5.65137 -2.68457 5.72656 -6.11328l2.88867 -110.757l-2.79395 -53.29v0.0439453c0 -3.43359 -2.63086 -6.1123 -5.75684 -6.1123
c-3.13672 0 -5.70605 2.68262 -5.76758 6.07617l-2.5459 53.2891l2.5459 110.742c0.0615234 3.4375 2.57227 6.12109 5.70312 6.12109zM246.261 289.689v0c3.54688 0 6.625 -3.14453 6.67676 -6.99902l3.06641 -143.747l-2.58203 -52.168v0.0615234
c0 -3.86914 -3.29297 -7.00879 -6.83984 -7.00879c-3.55371 0 -6.79297 3.1377 -6.83984 6.95215l-2.67773 52.1631l2.66992 143.736c0.0537109 3.86523 2.97168 7.00977 6.52637 7.00977zM442.557 206.982v0c32.6885 0 59.2031 -28.5742 59.2031 -63.8135
s-26.4893 -63.8086 -59.1797 -63.8086c-1.05566 0 -163.905 0.0878906 -164.056 0.106445c-3.5332 0.381836 -6.33203 3.63477 -6.33203 7.54004v202.508c0 3.71777 1.17383 5.6377 5.64062 7.5c11.4951 4.79395 24.4512 7.625 37.8057 7.625
c54.5723 0 99.3115 -45.1064 104.022 -102.611c7.0459 3.18555 14.7861 4.9541 22.8955 4.9541zM442.557 206.982z" />
    <glyph glyph-name="uniF128" unicode="&#xf128;" 
d="M250.88 52.5264l169.146 -122.226l-63.1123 205.662l164.854 125.68l-206.397 0.392578l-64.4893 210.716l-64.4893 -210.716l-206.398 -0.392578l164.864 -125.68l-63.123 -205.663zM250.88 77.7939l-131.653 -95.1338l49.3965 160.938l-128.136 97.6797
l161.062 0.306641l49.3311 161.186l49.3311 -161.186l161.062 -0.306641l-128.126 -97.6797l49.3877 -160.938zM250.88 65.1602zM250.88 65.1602z" />
    <glyph glyph-name="uniF129" unicode="&#xf129;" 
d="M444.188 403.899v0c21.6973 0 39.2881 -17.9131 39.2881 -40.0078v-260.188c0 -22.0938 -17.5908 -40.0068 -39.2881 -40.0068h-39.3174v-79.2852l-77.8594 79.2852h-275.764c-21.6973 0 -39.2881 17.9131 -39.2881 40.0068v260.188
c0 22.0947 17.5908 40.0078 39.2881 40.0078h392.94zM463.832 103.703v0v260.188c0 11.0322 -8.81055 20.0039 -19.6445 20.0039h-392.94c-10.834 0 -19.6445 -8.97168 -19.6445 -20.0039v-260.188c0 -11.0312 8.81055 -20.0029 19.6445 -20.0029h275.764h8.13281
l5.75586 -5.86133l44.3262 -45.1387v30.9961v20.0039h19.6445h39.3174c10.834 0 19.6445 8.97168 19.6445 20.0029zM463.832 103.703zM247.717 213.724c-10.8486 0 -19.6436 8.95605 -19.6436 20.0039s8.79492 20.0039 19.6436 20.0039
c10.8496 0 19.6445 -8.95605 19.6445 -20.0039s-8.79492 -20.0039 -19.6445 -20.0039zM247.717 213.724zM326.293 213.724c-10.8486 0 -19.6436 8.95605 -19.6436 20.0039s8.79492 20.0039 19.6436 20.0039c10.8496 0 19.6445 -8.95605 19.6445 -20.0039
s-8.79492 -20.0039 -19.6445 -20.0039zM326.293 213.724zM170.988 213.724c-10.8496 0 -19.6445 8.95605 -19.6445 20.0039s8.79492 20.0039 19.6445 20.0039c10.8486 0 19.6436 -8.95605 19.6436 -20.0039s-8.79492 -20.0039 -19.6436 -20.0039zM170.988 213.724z" />
    <glyph glyph-name="uniF12A" unicode="&#xf12a;" 
d="M10.2402 406.281h481.279v-20.4805h-481.279v20.4805zM10.2402 406.281zM10.2402 308.318h336.896v-20.4795h-336.896v20.4795zM10.2402 308.318zM10.2402 210.355h481.279v-20.4795h-481.279v20.4795zM10.2402 210.355zM10.2402 112.394h481.279v-20.4805h-481.279
v20.4805zM10.2402 112.394zM10.2402 14.4355h336.896v-20.4795h-336.896v20.4795zM10.2402 14.4355zM453.517 -12.7998c-11.6943 0 -21.1748 9.64648 -21.1748 21.5459c0 11.9004 9.48047 21.5469 21.1748 21.5469c11.6934 0 21.1738 -9.64648 21.1738 -21.5469
c0 -11.8994 -9.48047 -21.5459 -21.1738 -21.5459zM453.517 -12.7998z" />
    <glyph glyph-name="uniF12B" unicode="&#xf12b;" 
d="M107.52 226.377v89.6797c57.9502 3.77344 110.306 16.915 106.486 115.089l55.4922 1.49414l-2.99902 -115.088h137.981v-91.1748l-137.981 1.49512l1.49902 -136.015c15.7725 -89.748 103.712 -58.6289 136.482 -26.9033v-76.2275
c-25.4658 -20.1465 -75.8535 -35.3281 -116.984 -37.3662c-70.75 7.57617 -131.428 30.5049 -134.982 140.497v134.52h-44.9941zM107.52 226.377z" />
    <glyph glyph-name="uniF12C" unicode="&#xf12c;" 
d="M245.959 295.647c-3.12988 44.7695 24.3428 85.6621 67.8115 101.525c15.9971 5.63965 43.1211 6.34473 60.8564 1.41016c6.95508 -2.11523 20.1699 -9.16602 29.5586 -15.5107l17.04 -11.6338l18.7783 5.99316c10.4326 3.17285 24.3428 8.45996 30.6025 11.9854
c5.91211 3.17285 11.1279 4.93555 11.1279 3.87793c0 -5.99316 -12.8662 -26.4385 -23.6465 -37.7197c-14.6064 -15.8633 -10.4326 -17.2734 19.126 -6.69727c17.7354 5.99219 18.083 5.99219 14.6055 -0.705078c-2.08691 -3.52539 -12.8672 -15.8633 -24.3428 -27.1445
c-19.4736 -19.3887 -20.5176 -21.5039 -20.5176 -37.7197c0 -25.0283 -11.8232 -77.2012 -23.6465 -105.756c-21.9082 -53.583 -68.8545 -108.928 -115.802 -136.777c-66.0723 -39.1289 -154.054 -49 -228.124 -26.0859c-24.6904 7.75488 -67.1162 27.4961 -67.1162 31.0215
c0 1.05762 12.8662 2.46777 28.5156 2.82031c32.6885 0.705078 65.377 9.87012 93.1973 26.0859l18.7783 11.2812l-21.5605 7.40234c-30.6025 10.5762 -58.0742 34.8994 -65.0293 57.8135c-2.08691 7.40332 -1.3916 7.75488 18.083 7.75488l20.1699 0.352539l-17.04 8.1084
c-20.1699 10.2227 -38.6006 27.4961 -47.6426 45.1221c-6.60645 12.6914 -14.9531 44.7705 -12.5186 47.2383c0.695312 1.05762 7.99805 -1.05762 16.3438 -3.87793c23.9951 -8.81348 27.125 -6.69824 13.2148 8.10742c-26.0811 26.792 -34.0791 66.627 -21.5605 104.346
l5.91211 16.9209l22.9512 -22.9131c46.9463 -46.1807 102.239 -73.6768 165.53 -81.7842l17.3867 -2.11523zM245.959 295.647z" />
    <glyph glyph-name="uniF12D" unicode="&#xf12d;" 
d="M11.1855 334.918v0h472.529v-351.086h-472.529v351.086zM466.214 1.38672v0v315.978h-437.527v-315.978h437.527zM466.214 1.38672zM46.1875 370.027h402.524v-17.5547h-402.524v17.5547zM46.1875 370.027zM81.1895 405.136h332.521v-17.5547h-332.521v17.5547z
M81.1895 405.136z" />
    <glyph glyph-name="uniF12E" unicode="&#xf12e;" 
d="M411.52 366.08v0c49.6328 0 90.2402 -40.3203 90.2402 -89.5996v-179.2c0 -49.2803 -40.6074 -89.6006 -90.2402 -89.6006h-300.8c-49.6318 0 -90.2393 40.3203 -90.2393 89.6006v179.2c0 49.2793 40.6074 89.5996 90.2393 89.5996h300.8zM204.499 79.3604v0
l155.708 114.688l-155.708 114.688v-229.376zM204.499 79.3604z" />
  </font>
</defs>
</svg>
